#!OML:ASF H:\Pregnant\Project 1\Capture day 1\Session 1\femalepreg.ASF
:FULLY-SPECIFIED
:DEGREES
339
root 2.00909 15.8631 31.4642 -132.473 -88.9258 159.007
lowerback -14.6926 2.73993 2.1269
upperback -4.94002 3.0145 1.309
thorax 3.04298 1.38702 0.677971
lowerneck -18.9015 3.10872 4.73358
upperneck 26.5536 3.06761 -1.67034
head 11.9728 1.52036 -0.966782
rclavicle -4.19436e-014 -1.27222e-014
rhumerus -31.6311 17.8781 -91.1217
rradius 43.9421
rwrist -36.2347
rhand -22.459 -23.8593
rfingers 7.12502
rthumb 3.96552 -53.8021
lclavicle -4.19436e-014 -1.27222e-014
lhumerus -48.7494 -3.78233 78.1666
lradius 39.0922
lwrist 42.9071
lhand -18.5953 2.61794
lfingers 7.12502
lthumb 7.69581 32.4579
rfemur -40.6476 17.7471 15.5559
rtibia 29.091
rfoot -11.7265 -15.0444
rtoes 6.78176
lfemur 0 0 0
ltibia 0
lfoot 0 0
ltoes 0
340
root 1.98178 15.8586 31.468 -134.409 -88.9417 160.684
lowerback -15.0325 2.73521 2.16416
upperback -5.12693 2.98213 1.25087
thorax 3.03306 1.36296 0.600577
lowerneck -19.1037 3.04964 4.64358
upperneck 26.556 3.01151 -1.68082
head 12.0102 1.48494 -0.962238
rclavicle -3.08116e-014 8.74653e-015
rhumerus -31.8379 16.7358 -90.6776
rradius 42.5467
rwrist -35.6401
rhand -23.9488 -24.3635
rfingers 7.12502
rthumb 2.52679 -54.3283
lclavicle -3.08116e-014 8.74653e-015
lhumerus -48.7347 -3.41553 78.239
lradius 38.9586
lwrist 42.8638
lhand -19.1096 2.78131
lfingers 7.12502
lthumb 7.19934 32.6388
rfemur -40.1954 17.5765 15.8102
rtibia 29.0816
rfoot -11.9002 -14.8566
rtoes 6.81568
lfemur 0 0 0
ltibia 0
lfoot 0 0
ltoes 0
341
root 1.9551 15.8543 31.471 -137.262 -88.932 163.289
lowerback -15.3746 2.73144 2.18151
upperback -5.30475 2.95267 1.20582
thorax 3.03141 1.34037 0.548555
lowerneck -19.2757 3.01368 4.562
upperneck 26.536 2.99218 -1.70608
head 12.0346 1.46505 -0.959055
rclavicle 5.46658e-015 -1.43125e-014
rhumerus -32.0402 15.6419 -90.198
rradius 41.1405
rwrist -35.0387
rhand -25.2751 -24.8586
rfingers 7.12502
rthumb 1.24584 -54.8347
lclavicle 5.46658e-015 -1.43125e-014
lhumerus -48.7309 -3.06185 78.3348
lradius 38.8352
lwrist 42.852
lhand -19.5929 2.93506
lfingers 7.12502
lthumb 6.73281 32.808
rfemur -39.7569 17.4302 16.0535
rtibia 29.052
rfoot -12.055 -14.6632
rtoes 6.86223
lfemur 0 0 0
ltibia 0
lfoot 0 0
ltoes 0
342
root 1.92841 15.8504 31.4714 -142.328 -88.8677 168.11
lowerback -15.7116 2.74411 2.17428
upperback -5.47031 2.94797 1.17283
thorax 3.03762 1.33035 0.527287
lowerneck -19.4124 2.98862 4.50139
upperneck 26.4874 2.98926 -1.75043
head 12.042 1.45234 -0.9642
rclavicle -2.79292e-014 -1.59028e-015
rhumerus -32.2324 14.5502 -89.6956
rradius 39.7182
rwrist -34.4094
rhand -26.4707 -25.3759
rfingers 7.12502
rthumb 0.0911101 -55.3557
lclavicle -2.79292e-014 -1.59028e-015
lhumerus -48.7338 -2.75652 78.4581
lradius 38.7274
lwrist 42.8798
lhand -20.0683 3.10218
lfingers 7.12502
lthumb 6.27392 32.9893
rfemur -39.3197 17.3573 16.3015
rtibia 28.9981
rfoot -12.1875 -14.4699
rtoes 6.89627
lfemur 0 0 0
ltibia 0
lfoot 0 0
ltoes 0
343
root 1.90181 15.8466 31.47 -147.897 -88.7597 173.43
lowerback -16.0408 2.75692 2.13723
upperback -5.62186 2.94694 1.16709
thorax 3.05087 1.32264 0.551929
lowerneck -19.512 2.9778 4.43026
upperneck 26.407 3.01706 -1.81052
head 12.0308 1.45045 -0.968773
rclavicle 2.99171e-014 1.27222e-014
rhumerus -32.4183 13.5143 -89.1515
rradius 38.286
rwrist -33.7453
rhand -27.4982 -25.8771
rfingers 7.12502
rthumb -0.901234 -55.8549
lclavicle 2.99171e-014 1.27222e-014
lhumerus -48.7484 -2.46576 78.6261
lradius 38.6377
lwrist 42.9375
lhand -20.5444 3.27803
lfingers 7.12502
lthumb 5.81427 33.1783
rfemur -38.8787 17.3361 16.5498
rtibia 28.928
rfoot -12.3013 -14.2845
rtoes 6.91113
lfemur 0 0 0
ltibia 0
lfoot 0 0
ltoes 0
344
root 1.8752 15.8431 31.4664 -153.308 -88.5872 178.595
lowerback -16.3673 2.78152 2.07516
upperback -5.76066 2.96527 1.16878
thorax 3.07398 1.32498 0.602274
lowerneck -19.5768 2.97761 4.37451
upperneck 26.2951 3.06208 -1.88882
head 12.0016 1.45575 -0.98017
rclavicle -1.83876e-014 -4.77083e-015
rhumerus -32.5963 12.4852 -88.5718
rradius 36.8422
rwrist -32.9927
rhand -28.2889 -26.3075
rfingers 7.12502
rthumb -1.66492 -56.2807
lclavicle -1.83876e-014 -4.77083e-015
lhumerus -48.7634 -2.22799 78.825
lradius 38.5673
lwrist 43.02
lhand -20.9854 3.47009
lfingers 7.12502
lthumb 5.38842 33.3816
rfemur -38.4419 17.3643 16.7971
rtibia 28.8432
rfoot -12.398 -14.0885
rtoes 6.91455
lfemur 0 0 0
ltibia 0
lfoot 0 0
ltoes 0
345
root 1.84932 15.8394 31.4643 -156.854 -88.462 181.898
lowerback -16.6868 2.77693 2.01588
upperback -5.8884 2.94479 1.18506
thorax 3.10363 1.30845 0.659069
lowerneck -19.6263 2.99391 4.32552
upperneck 26.1675 3.13694 -1.9937
head 11.9649 1.47176 -0.997894
rclavicle -7.55382e-015 -9.54166e-015
rhumerus -32.7738 11.5336 -87.9587
rradius 35.4117
rwrist -32.2072
rhand -28.9181 -26.7095
rfingers 7.12502
rthumb -2.2726 -56.6772
lclavicle -7.55382e-015 -9.54166e-015
lhumerus -48.7859 -2.01823 79.0706
lradius 38.521
lwrist 43.1205
lhand -21.3901 3.6739
lfingers 7.12502
lthumb 4.99769 33.595
rfemur -37.9978 17.3595 17.0291
rtibia 28.751
rfoot -12.4883 -13.923
rtoes 6.89826
lfemur 0 0 0
ltibia 0
lfoot 0 0
ltoes 0
346
root 1.82324 15.835 31.4613 -160.038 -88.3915 184.824
lowerback -16.9964 2.74965 1.95973
upperback -5.99917 2.89467 1.2139
thorax 3.14491 1.27788 0.721486
lowerneck -19.6598 3.0169 4.28221
upperneck 26.0214 3.22167 -2.10475
head 11.9187 1.49227 -1.0173
rclavicle -7.85199e-015 -2.06736e-014
rhumerus -32.945 10.6056 -87.3232
rradius 33.9923
rwrist -31.3654
rhand -29.4259 -27.0937
rfingers 7.12502
rthumb -2.763 -57.0556
lclavicle -7.85199e-015 -2.06736e-014
lhumerus -48.8066 -1.86298 79.3533
lradius 38.4964
lwrist 43.2144
lhand -21.7411 3.8849
lfingers 7.12502
lthumb 4.65879 33.8137
rfemur -37.5296 17.4342 17.2388
rtibia 28.6446
rfoot -12.5612 -13.8935
rtoes 6.90076
lfemur 0 0 0
ltibia 0
lfoot 0 0
ltoes 0
347
root 1.79714 15.83 31.4568 -163.66 -88.3488 188.179
lowerback -17.2978 2.71061 1.9061
upperback -6.09415 2.82931 1.25433
thorax 3.19777 1.24037 0.791506
lowerneck -19.6997 3.049 4.28515
upperneck 25.8785 3.31446 -2.25379
head 11.8772 1.51606 -1.05727
rclavicle 2.48481e-016 -7.95139e-015
rhumerus -33.1175 9.70936 -86.6745
rradius 32.5984
rwrist -30.468
rhand -29.8088 -27.4749
rfingers 7.12502
rthumb -3.13277 -57.4317
lclavicle 2.48481e-016 -7.95139e-015
lhumerus -48.8204 -1.77055 79.6683
lradius 38.4896
lwrist 43.2871
lhand -22.0295 4.09531
lfingers 7.12502
lthumb 4.38024 34.03
rfemur -37.0426 17.5803 17.4493
rtibia 28.5189
rfoot -12.6073 -13.9608
rtoes 6.8709
lfemur 0 0 0
ltibia 0
lfoot 0 0
ltoes 0
